<?xml version="1.0" encoding="UTF-8"?>
<!DOCTYPE svg PUBLIC "-//W3C//DTD SVG 1.1//EN" "http://www.w3.org/Graphics/SVG/1.1/DTD/svg11.dtd">
<!-- Creator: CorelDRAW -->
<svg xmlns="http://www.w3.org/2000/svg" xml:space="preserve" width="166.181mm" height="166.181mm" style="shape-rendering:geometricPrecision; text-rendering:geometricPrecision; image-rendering:optimizeQuality; fill-rule:evenodd; clip-rule:evenodd"
viewBox="0 0 75.5165 75.5165"
 xmlns:xlink="http://www.w3.org/1999/xlink">
 <defs>
  <style type="text/css">
   <![CDATA[
    .str43 {stroke:#4B4B4B;stroke-width:0.0908845}
    .str0 {stroke:#1F1A17;stroke-width:0.227211}
    .str2 {stroke:#2C2724;stroke-width:0.227211}
    .str3 {stroke:#34312D;stroke-width:0.227211}
    .str4 {stroke:#3D3B36;stroke-width:0.227211}
    .str5 {stroke:#45443E;stroke-width:0.227211}
    .str6 {stroke:#4D4E45;stroke-width:0.227211}
    .str7 {stroke:#525448;stroke-width:0.227211}
    .str8 {stroke:#5A5D4E;stroke-width:0.227211}
    .str9 {stroke:#606552;stroke-width:0.227211}
    .str10 {stroke:#666E55;stroke-width:0.227211}
    .str11 {stroke:#6A7355;stroke-width:0.227211}
    .str12 {stroke:#6E7B57;stroke-width:0.227211}
    .str13 {stroke:#728259;stroke-width:0.227211}
    .str14 {stroke:#768958;stroke-width:0.227211}
    .str15 {stroke:#799057;stroke-width:0.227211}
    .str16 {stroke:#7C9653;stroke-width:0.227211}
    .str17 {stroke:#7E9D52;stroke-width:0.227211}
    .str18 {stroke:#80A54E;stroke-width:0.227211}
    .str19 {stroke:#81AA49;stroke-width:0.227211}
    .str42 {stroke:#84C225;stroke-width:0.227211}
    .str20 {stroke:#85B33F;stroke-width:0.227211}
    .str21 {stroke:#85BB36;stroke-width:0.227211}
    .str41 {stroke:#89C537;stroke-width:0.227211}
    .str40 {stroke:#8DC741;stroke-width:0.227211}
    .str39 {stroke:#90C84E;stroke-width:0.227211}
    .str38 {stroke:#94CA58;stroke-width:0.227211}
    .str37 {stroke:#99CD62;stroke-width:0.227211}
    .str36 {stroke:#9ECF69;stroke-width:0.227211}
    .str35 {stroke:#A3D172;stroke-width:0.227211}
    .str34 {stroke:#A9D47B;stroke-width:0.227211}
    .str33 {stroke:#AED783;stroke-width:0.227211}
    .str32 {stroke:#B4DA89;stroke-width:0.227211}
    .str31 {stroke:#BBDD92;stroke-width:0.227211}
    .str30 {stroke:#C1E09A;stroke-width:0.227211}
    .str29 {stroke:#C8E3A3;stroke-width:0.227211}
    .str28 {stroke:#CEE6AD;stroke-width:0.227211}
    .str27 {stroke:#D1E7B5;stroke-width:0.227211}
    .str26 {stroke:#D9EBC0;stroke-width:0.227211}
    .str25 {stroke:#E2EFCB;stroke-width:0.227211}
    .str24 {stroke:#E9F3D5;stroke-width:0.227211}
    .str23 {stroke:#F1F7E1;stroke-width:0.227211}
    .str22 {stroke:#F8FBF0;stroke-width:0.227211}
    .str1 {stroke:white;stroke-width:0.227211}
    .fil1 {fill:none}
    .fil0 {fill:black}
    .fil3 {fill:#FA821E}
    .fil4 {fill:white}
    .fil2 {fill:black;fill-rule:nonzero}
   ]]>
  </style>
 </defs>
 <g id="Layer_x0020_1">
  <metadata id="CorelCorpID_0Corel-Layer"/>
  <rect class="fil0" width="75.5165" height="75.5165"/>
  <g id="_130237080">
   <path id="_154551392" class="fil1 str0" d="M37.7669 16.3552c14.481,0 26.2245,11.7435 26.2245,26.2245 0,14.481 -11.7435,26.2245 -26.2245,26.2245 -14.4809,0 -26.2245,-11.7435 -26.2245,-26.2245 0,-14.481 11.7435,-26.2245 26.2245,-26.2245z"/>
   <path id="_154550408" class="fil1 str1" d="M37.7669 19.1429c12.9416,0 23.4367,10.4952 23.4367,23.4367 0,12.9416 -10.4951,23.4367 -23.4367,23.4367 -12.9416,0 -23.4367,-10.4952 -23.4367,-23.4367 0,-12.9416 10.4951,-23.4367 23.4367,-23.4367z"/>
   <path id="_154550864" class="fil1 str0" d="M37.7669 21.8587c11.442,0 20.7211,9.27903 20.7211,20.721 0,11.442 -9.27908,20.721 -20.7211,20.721 -11.4419,0 -20.721,-9.27903 -20.721,-20.721 0,-11.442 9.27908,-20.721 20.721,-20.721z"/>
   <g>
    <path id="_154327840" class="fil1 str2" d="M37.767 21.7953c11.477,0 20.7844,9.30739 20.7844,20.7844 0,11.477 -9.30743,20.7844 -20.7844,20.7844 -11.4769,0 -20.7844,-9.30739 -20.7844,-20.7844 0,-11.477 9.30743,-20.7844 20.7844,-20.7844z"/>
    <path id="_154329856" class="fil1 str3" d="M37.767 21.7319c11.5119,0 20.8478,9.33579 20.8478,20.8477 0,11.5119 -9.33583,20.8477 -20.8478,20.8477 -11.5119,0 -20.8477,-9.33579 -20.8477,-20.8477 0,-11.5119 9.33583,-20.8477 20.8477,-20.8477z"/>
    <path id="_154330192" class="fil1 str4" d="M37.767 21.6686c11.5469,0 20.9111,9.3641 20.9111,20.911 0,11.5469 -9.36414,20.911 -20.9111,20.911 -11.5469,0 -20.911,-9.3641 -20.911,-20.911 0,-11.5469 9.36414,-20.911 20.911,-20.911z"/>
    <path id="_154329976" class="fil1 str5" d="M37.767 21.6053c11.5819,0 20.9744,9.39245 20.9744,20.9744 0,11.5819 -9.3925,20.9744 -20.9744,20.9744 -11.5819,0 -20.9744,-9.39245 -20.9744,-20.9744 0,-11.5819 9.3925,-20.9744 20.9744,-20.9744z"/>
    <path id="_154329928" class="fil1 str6" d="M37.767 21.5419c11.6169,0 21.0378,9.42085 21.0378,21.0377 0,11.6169 -9.4209,21.0377 -21.0378,21.0377 -11.6168,0 -21.0377,-9.42085 -21.0377,-21.0377 0,-11.6169 9.4209,-21.0377 21.0377,-21.0377z"/>
    <path id="_154329904" class="fil1 str7" d="M37.767 21.4786c11.6518,0 21.1011,9.44921 21.1011,21.1011 0,11.6518 -9.44926,21.1011 -21.1011,21.1011 -11.6518,0 -21.1011,-9.44921 -21.1011,-21.1011 0,-11.6518 9.44926,-21.1011 21.1011,-21.1011z"/>
    <path id="_154330216" class="fil1 str8" d="M37.767 21.4152c11.6868,0 21.1644,9.47757 21.1644,21.1644 0,11.6868 -9.47761,21.1644 -21.1644,21.1644 -11.6868,0 -21.1644,-9.47757 -21.1644,-21.1644 0,-11.6868 9.47761,-21.1644 21.1644,-21.1644z"/>
    <path id="_154330672" class="fil1 str9" d="M37.767 21.3519c11.7218,0 21.2277,9.50592 21.2277,21.2277 0,11.7218 -9.50597,21.2277 -21.2277,21.2277 -11.7217,0 -21.2277,-9.50592 -21.2277,-21.2277 0,-11.7218 9.50597,-21.2277 21.2277,-21.2277z"/>
    <path id="_154331032" class="fil1 str10" d="M37.767 21.2886c11.7568,0 21.2911,9.53428 21.2911,21.291 0,11.7568 -9.53432,21.291 -21.2911,21.291 -11.7567,0 -21.291,-9.53428 -21.291,-21.291 0,-11.7568 9.53432,-21.291 21.291,-21.291z"/>
    <path id="_154330648" class="fil1 str11" d="M37.767 21.2252c11.7918,0 21.3544,9.56263 21.3544,21.3544 0,11.7918 -9.56268,21.3544 -21.3544,21.3544 -11.7917,0 -21.3544,-9.56263 -21.3544,-21.3544 0,-11.7918 9.56268,-21.3544 21.3544,-21.3544z"/>
    <path id="_154331200" class="fil1 str12" d="M37.767 21.1619c11.8267,0 21.4178,9.59104 21.4178,21.4177 0,11.8267 -9.59108,21.4177 -21.4178,21.4177 -11.8267,0 -21.4177,-9.59104 -21.4177,-21.4177 0,-11.8267 9.59108,-21.4177 21.4177,-21.4177z"/>
    <path id="_154330864" class="fil1 str13" d="M37.767 21.0986c11.8617,0 21.4811,9.61939 21.4811,21.4811 0,11.8617 -9.61944,21.4811 -21.4811,21.4811 -11.8616,0 -21.4811,-9.61939 -21.4811,-21.4811 0,-11.8617 9.61944,-21.4811 21.4811,-21.4811z"/>
    <path id="_154330552" class="fil1 str14" d="M37.767 21.0352c11.8967,0 21.5445,9.64775 21.5445,21.5444 0,11.8967 -9.64779,21.5444 -21.5445,21.5444 -11.8966,0 -21.5444,-9.64775 -21.5444,-21.5444 0,-11.8967 9.64779,-21.5444 21.5444,-21.5444z"/>
    <path id="_154330912" class="fil1 str15" d="M37.767 20.9719c11.9316,0 21.6078,9.6761 21.6078,21.6077 0,11.9316 -9.67615,21.6077 -21.6078,21.6077 -11.9316,0 -21.6077,-9.6761 -21.6077,-21.6077 0,-11.9316 9.67615,-21.6077 21.6077,-21.6077z"/>
    <path id="_154330600" class="fil1 str16" d="M37.767 20.9086c11.9666,0 21.6711,9.70446 21.6711,21.6711 0,11.9666 -9.70451,21.6711 -21.6711,21.6711 -11.9666,0 -21.6711,-9.70446 -21.6711,-21.6711 0,-11.9666 9.70451,-21.6711 21.6711,-21.6711z"/>
    <path id="_154331248" class="fil1 str17" d="M37.767 20.8452c12.0016,0 21.7345,9.73282 21.7345,21.7344 0,12.0016 -9.73286,21.7344 -21.7345,21.7344 -12.0016,0 -21.7344,-9.73282 -21.7344,-21.7344 0,-12.0016 9.73286,-21.7344 21.7344,-21.7344z"/>
    <path id="_154331992" class="fil1 str18" d="M37.767 20.7819c12.0366,0 21.7978,9.76122 21.7978,21.7978 0,12.0366 -9.76126,21.7978 -21.7978,21.7978 -12.0365,0 -21.7978,-9.76122 -21.7978,-21.7978 0,-12.0366 9.76126,-21.7978 21.7978,-21.7978z"/>
    <path id="_154331392" class="fil1 str19" d="M37.767 20.7185c12.0715,0 21.8612,9.78957 21.8612,21.8611 0,12.0715 -9.78962,21.8611 -21.8612,21.8611 -12.0715,0 -21.8611,-9.78957 -21.8611,-21.8611 0,-12.0715 9.78962,-21.8611 21.8611,-21.8611z"/>
    <path id="_154331536" class="fil1 str20" d="M37.767 20.6552c12.1065,0 21.9245,9.81788 21.9245,21.9244 0,12.1065 -9.81793,21.9244 -21.9245,21.9244 -12.1065,0 -21.9244,-9.81788 -21.9244,-21.9244 0,-12.1065 9.81793,-21.9244 21.9244,-21.9244z"/>
    <path id="_154331296" class="fil1 str21" d="M37.767 20.5919c12.1415,0 21.9878,9.84629 21.9878,21.9878 0,12.1415 -9.84633,21.9878 -21.9878,21.9878 -12.1414,0 -21.9878,-9.84629 -21.9878,-21.9878 0,-12.1415 9.84633,-21.9878 21.9878,-21.9878z"/>
   </g>
   <g>
    <path id="_155759680" class="fil1 str22" d="M37.767 19.2089c12.9052,0 23.3708,10.4656 23.3708,23.3708 0,12.9051 -10.4656,23.3708 -23.3708,23.3708 -12.9051,0 -23.3707,-10.4656 -23.3707,-23.3708 0,-12.9051 10.4656,-23.3708 23.3707,-23.3708z"/>
    <path id="_155758480" class="fil1 str23" d="M37.767 19.2749c12.8687,0 23.3048,10.4361 23.3048,23.3048 0,12.8687 -10.436,23.3048 -23.3048,23.3048 -12.8687,0 -23.3047,-10.4361 -23.3047,-23.3048 0,-12.8687 10.436,-23.3048 23.3047,-23.3048z"/>
    <path id="_152604136" class="fil1 str24" d="M37.767 19.3408c12.8323,0 23.2388,10.4065 23.2388,23.2388 0,12.8323 -10.4065,23.2388 -23.2388,23.2388 -12.8323,0 -23.2387,-10.4065 -23.2387,-23.2388 0,-12.8323 10.4065,-23.2388 23.2387,-23.2388z"/>
    <path id="_154334056" class="fil1 str25" d="M37.767 19.4068c12.7959,0 23.1728,10.377 23.1728,23.1728 0,12.7958 -10.3769,23.1728 -23.1728,23.1728 -12.7958,0 -23.1728,-10.377 -23.1728,-23.1728 0,-12.7958 10.3769,-23.1728 23.1728,-23.1728z"/>
    <path id="_154327672" class="fil1 str26" d="M37.767 19.4728c12.7594,0 23.1068,10.3474 23.1068,23.1068 0,12.7594 -10.3474,23.1068 -23.1068,23.1068 -12.7594,0 -23.1068,-10.3474 -23.1068,-23.1068 0,-12.7594 10.3474,-23.1068 23.1068,-23.1068z"/>
    <path id="_155542696" class="fil1 str27" d="M37.767 19.5388c12.723,0 23.0408,10.3179 23.0408,23.0408 0,12.723 -10.3178,23.0408 -23.0408,23.0408 -12.723,0 -23.0408,-10.3179 -23.0408,-23.0408 0,-12.723 10.3178,-23.0408 23.0408,-23.0408z"/>
    <path id="_155549416" class="fil1 str28" d="M37.767 19.6048c12.6866,0 22.9749,10.2883 22.9749,22.9749 0,12.6866 -10.2883,22.9749 -22.9749,22.9749 -12.6865,0 -22.9748,-10.2883 -22.9748,-22.9749 0,-12.6866 10.2883,-22.9749 22.9748,-22.9749z"/>
    <path id="_155547784" class="fil1 str29" d="M37.767 19.6708c12.6502,0 22.9089,10.2588 22.9089,22.9089 0,12.6501 -10.2587,22.9089 -22.9089,22.9089 -12.6501,0 -22.9088,-10.2588 -22.9088,-22.9089 0,-12.6501 10.2587,-22.9089 22.9088,-22.9089z"/>
    <path id="_155546584" class="fil1 str30" d="M37.767 19.7367c12.6137,0 22.8429,10.2292 22.8429,22.8429 0,12.6137 -10.2292,22.8429 -22.8429,22.8429 -12.6137,0 -22.8429,-10.2292 -22.8429,-22.8429 0,-12.6137 10.2292,-22.8429 22.8429,-22.8429z"/>
    <path id="_155545096" class="fil1 str31" d="M37.767 19.8027c12.5773,0 22.7769,10.1997 22.7769,22.7769 0,12.5772 -10.1996,22.7769 -22.7769,22.7769 -12.5772,0 -22.7769,-10.1997 -22.7769,-22.7769 0,-12.5772 10.1996,-22.7769 22.7769,-22.7769z"/>
    <path id="_155232952" class="fil1 str32" d="M37.767 19.8687c12.5408,0 22.711,10.1701 22.711,22.7109 0,12.5408 -10.1702,22.7109 -22.711,22.7109 -12.5408,0 -22.7109,-10.1701 -22.7109,-22.7109 0,-12.5408 10.1702,-22.7109 22.7109,-22.7109z"/>
    <path id="_155420760" class="fil1 str33" d="M37.767 19.9347c12.5044,0 22.645,10.1406 22.645,22.645 0,12.5044 -10.1406,22.645 -22.645,22.645 -12.5043,0 -22.645,-10.1406 -22.645,-22.645 0,-12.5044 10.1406,-22.645 22.645,-22.645z"/>
    <path id="_155426952" class="fil1 str34" d="M37.767 20.0007c12.4679,0 22.579,10.111 22.579,22.579 0,12.4679 -10.1111,22.579 -22.579,22.579 -12.4679,0 -22.579,-10.111 -22.579,-22.579 0,-12.4679 10.1111,-22.579 22.579,-22.579z"/>
    <path id="_155425704" class="fil1 str35" d="M37.767 20.0667c12.4315,0 22.513,10.0815 22.513,22.513 0,12.4315 -10.0815,22.513 -22.513,22.513 -12.4315,0 -22.513,-10.0815 -22.513,-22.513 0,-12.4315 10.0815,-22.513 22.513,-22.513z"/>
    <path id="_155425224" class="fil1 str36" d="M37.767 20.1326c12.3951,0 22.4471,10.0519 22.4471,22.447 0,12.3951 -10.052,22.447 -22.4471,22.447 -12.395,0 -22.447,-10.0519 -22.447,-22.447 0,-12.3951 10.052,-22.447 22.447,-22.447z"/>
    <path id="_155423064" class="fil1 str37" d="M37.767 20.1986c12.3586,0 22.3811,10.0224 22.3811,22.381 0,12.3586 -10.0224,22.381 -22.3811,22.381 -12.3586,0 -22.381,-10.0224 -22.381,-22.381 0,-12.3586 10.0224,-22.381 22.381,-22.381z"/>
    <path id="_155230912" class="fil1 str38" d="M37.767 20.2646c12.3222,0 22.3151,9.99284 22.3151,22.315 0,12.3222 -9.99288,22.315 -22.3151,22.315 -12.3222,0 -22.315,-9.99284 -22.315,-22.315 0,-12.3222 9.99288,-22.315 22.315,-22.315z"/>
    <path id="_155237224" class="fil1 str39" d="M37.767 20.3306c12.2858,0 22.2491,9.9633 22.2491,22.2491 0,12.2858 -9.96334,22.2491 -22.2491,22.2491 -12.2857,0 -22.2491,-9.9633 -22.2491,-22.2491 0,-12.2858 9.96334,-22.2491 22.2491,-22.2491z"/>
    <path id="_155236048" class="fil1 str40" d="M37.767 20.3966c12.2494,0 22.1831,9.93372 22.1831,22.1831 0,12.2494 -9.93376,22.1831 -22.1831,22.1831 -12.2493,0 -22.1831,-9.93372 -22.1831,-22.1831 0,-12.2494 9.93376,-22.1831 22.1831,-22.1831z"/>
    <path id="_155234440" class="fil1 str41" d="M37.767 20.4625c12.2129,0 22.1171,9.90418 22.1171,22.1171 0,12.2129 -9.90422,22.1171 -22.1171,22.1171 -12.2129,0 -22.1171,-9.90418 -22.1171,-22.1171 0,-12.2129 9.90422,-22.1171 22.1171,-22.1171z"/>
   </g>
   <path id="_130237512" class="fil1 str42" d="M37.7669 20.5286c12.1765,0 22.0512,9.87464 22.0512,22.0511 0,12.1765 -9.87469,22.0511 -22.0512,22.0511 -12.1764,0 -22.0511,-9.87464 -22.0511,-22.0511 0,-12.1765 9.87469,-22.0511 22.0511,-22.0511z"/>
   <g>
    <path id="_154327984" class="fil1 str22" d="M37.767 19.0797c12.9765,0 23.4999,10.5235 23.4999,23.4999 0,12.9765 -10.5234,23.4999 -23.4999,23.4999 -12.9765,0 -23.4999,-10.5235 -23.4999,-23.4999 0,-12.9765 10.5234,-23.4999 23.4999,-23.4999z"/>
    <path id="_155542336" class="fil1 str23" d="M37.767 19.0165c13.0114,0 23.5632,10.5518 23.5632,23.5632 0,13.0114 -10.5517,23.5632 -23.5632,23.5632 -13.0114,0 -23.5631,-10.5518 -23.5631,-23.5632 0,-13.0114 10.5517,-23.5632 23.5631,-23.5632z"/>
    <path id="_155549896" class="fil1 str24" d="M37.767 18.9533c13.0463,0 23.6263,10.58 23.6263,23.6263 0,13.0463 -10.58,23.6263 -23.6263,23.6263 -13.0463,0 -23.6263,-10.58 -23.6263,-23.6263 0,-13.0463 10.58,-23.6263 23.6263,-23.6263z"/>
    <path id="_155548216" class="fil1 str25" d="M37.767 18.8901c13.0812,0 23.6895,10.6084 23.6895,23.6895 0,13.0812 -10.6083,23.6895 -23.6895,23.6895 -13.0812,0 -23.6895,-10.6084 -23.6895,-23.6895 0,-13.0812 10.6083,-23.6895 23.6895,-23.6895z"/>
    <path id="_155546176" class="fil1 str26" d="M37.767 18.8269c13.1161,0 23.7527,10.6367 23.7527,23.7527 0,13.1161 -10.6366,23.7527 -23.7527,23.7527 -13.1161,0 -23.7527,-10.6367 -23.7527,-23.7527 0,-13.1161 10.6366,-23.7527 23.7527,-23.7527z"/>
    <path id="_155544760" class="fil1 str27" d="M37.767 18.7637c13.151,0 23.816,10.665 23.816,23.816 0,13.151 -10.6649,23.816 -23.816,23.816 -13.151,0 -23.8159,-10.665 -23.8159,-23.816 0,-13.151 10.6649,-23.816 23.8159,-23.816z"/>
    <path id="_155231296" class="fil1 str28" d="M37.767 18.7005c13.1859,0 23.8792,10.6932 23.8792,23.8791 0,13.1859 -10.6932,23.8791 -23.8792,23.8791 -13.1859,0 -23.8791,-10.6932 -23.8791,-23.8791 0,-13.1859 10.6932,-23.8791 23.8791,-23.8791z"/>
    <path id="_155421120" class="fil1 str29" d="M37.767 18.6373c13.2208,0 23.9423,10.7215 23.9423,23.9423 0,13.2208 -10.7215,23.9423 -23.9423,23.9423 -13.2208,0 -23.9423,-10.7215 -23.9423,-23.9423 0,-13.2208 10.7215,-23.9423 23.9423,-23.9423z"/>
    <path id="_155427624" class="fil1 str30" d="M37.767 18.5741c13.2557,0 24.0055,10.7499 24.0055,24.0055 0,13.2557 -10.7498,24.0055 -24.0055,24.0055 -13.2557,0 -24.0055,-10.7499 -24.0055,-24.0055 0,-13.2557 10.7498,-24.0055 24.0055,-24.0055z"/>
    <path id="_155425536" class="fil1 str31" d="M37.767 18.5109c13.2906,0 24.0687,10.7782 24.0687,24.0687 0,13.2906 -10.7781,24.0687 -24.0687,24.0687 -13.2906,0 -24.0687,-10.7782 -24.0687,-24.0687 0,-13.2906 10.7781,-24.0687 24.0687,-24.0687z"/>
    <path id="_155424000" class="fil1 str32" d="M37.767 18.4477c13.3255,0 24.132,10.8064 24.132,24.1319 0,13.3255 -10.8065,24.1319 -24.132,24.1319 -13.3254,0 -24.1319,-10.8064 -24.1319,-24.1319 0,-13.3255 10.8065,-24.1319 24.1319,-24.1319z"/>
    <path id="_155423496" class="fil1 str33" d="M37.767 18.3845c13.3604,0 24.1952,10.8347 24.1952,24.1951 0,13.3604 -10.8348,24.1951 -24.1952,24.1951 -13.3603,0 -24.1951,-10.8347 -24.1951,-24.1951 0,-13.3604 10.8348,-24.1951 24.1951,-24.1951z"/>
    <path id="_155231344" class="fil1 str34" d="M37.767 18.3213c13.3953,0 24.2584,10.8631 24.2584,24.2583 0,13.3953 -10.8631,24.2583 -24.2584,24.2583 -13.3952,0 -24.2583,-10.8631 -24.2583,-24.2583 0,-13.3953 10.8631,-24.2583 24.2583,-24.2583z"/>
    <path id="_155237584" class="fil1 str35" d="M37.767 18.2581c13.4302,0 24.3215,10.8914 24.3215,24.3215 0,13.4302 -10.8914,24.3215 -24.3215,24.3215 -13.4301,0 -24.3215,-10.8914 -24.3215,-24.3215 0,-13.4302 10.8914,-24.3215 24.3215,-24.3215z"/>
    <path id="_155235400" class="fil1 str36" d="M37.767 18.1949c13.4651,0 24.3848,10.9196 24.3848,24.3847 0,13.4651 -10.9197,24.3847 -24.3848,24.3847 -13.465,0 -24.3847,-10.9196 -24.3847,-24.3847 0,-13.4651 10.9197,-24.3847 24.3847,-24.3847z"/>
    <path id="_155234272" class="fil1 str37" d="M37.767 18.1317c13.5,0 24.448,10.9479 24.448,24.4479 0,13.5 -10.948,24.4479 -24.448,24.4479 -13.4999,0 -24.4479,-10.9479 -24.4479,-24.4479 0,-13.5 10.948,-24.4479 24.4479,-24.4479z"/>
    <path id="_155232328" class="fil1 str38" d="M37.767 18.0685c13.5349,0 24.5112,10.9763 24.5112,24.5111 0,13.5349 -10.9763,24.5111 -24.5112,24.5111 -13.5348,0 -24.5111,-10.9763 -24.5111,-24.5111 0,-13.5349 10.9763,-24.5111 24.5111,-24.5111z"/>
    <path id="_155757160" class="fil1 str39" d="M37.767 18.0053c13.5698,0 24.5744,11.0046 24.5744,24.5743 0,13.5698 -11.0046,24.5743 -24.5744,24.5743 -13.5697,0 -24.5743,-11.0046 -24.5743,-24.5743 0,-13.5698 11.0046,-24.5743 24.5743,-24.5743z"/>
    <path id="_155761528" class="fil1 str40" d="M37.767 17.9421c13.6047,0 24.6375,11.0328 24.6375,24.6375 0,13.6047 -11.0329,24.6375 -24.6375,24.6375 -13.6046,0 -24.6375,-11.0328 -24.6375,-24.6375 0,-13.6047 11.0329,-24.6375 24.6375,-24.6375z"/>
    <path id="_155763592" class="fil1 str41" d="M37.767 17.8789c13.6396,0 24.7008,11.0611 24.7008,24.7007 0,13.6396 -11.0612,24.7007 -24.7008,24.7007 -13.6395,0 -24.7007,-11.0611 -24.7007,-24.7007 0,-13.6396 11.0612,-24.7007 24.7007,-24.7007z"/>
   </g>
   <g>
    <path id="_155757520" class="fil1 str2" d="M37.767 16.4247c14.4426,0 26.155,11.7123 26.155,26.1549 0,14.4426 -11.7124,26.1549 -26.155,26.1549 -14.4425,0 -26.1549,-11.7123 -26.1549,-26.1549 0,-14.4426 11.7124,-26.1549 26.1549,-26.1549z"/>
    <path id="_155761384" class="fil1 str3" d="M37.767 16.4943c14.4042,0 26.0854,11.6812 26.0854,26.0854 0,14.4042 -11.6812,26.0854 -26.0854,26.0854 -14.4041,0 -26.0854,-11.6812 -26.0854,-26.0854 0,-14.4042 11.6812,-26.0854 26.0854,-26.0854z"/>
    <path id="_155763376" class="fil1 str4" d="M37.767 16.5638c14.3658,0 26.0159,11.65 26.0159,26.0158 0,14.3658 -11.6501,26.0158 -26.0159,26.0158 -14.3657,0 -26.0158,-11.65 -26.0158,-26.0158 0,-14.3658 11.6501,-26.0158 26.0158,-26.0158z"/>
    <path id="_155762200" class="fil1 str5" d="M37.767 16.6334c14.3273,0 25.9463,11.6189 25.9463,25.9463 0,14.3273 -11.619,25.9463 -25.9463,25.9463 -14.3273,0 -25.9463,-11.6189 -25.9463,-25.9463 0,-14.3273 11.619,-25.9463 25.9463,-25.9463z"/>
    <path id="_155759608" class="fil1 str6" d="M37.767 16.7029c14.2889,0 25.8768,11.5878 25.8768,25.8767 0,14.2889 -11.5878,25.8767 -25.8768,25.8767 -14.2889,0 -25.8767,-11.5878 -25.8767,-25.8767 0,-14.2889 11.5878,-25.8767 25.8767,-25.8767z"/>
    <path id="_155757856" class="fil1 str7" d="M37.767 16.7725c14.2505,0 25.8072,11.5566 25.8072,25.8072 0,14.2505 -11.5567,25.8072 -25.8072,25.8072 -14.2505,0 -25.8072,-11.5566 -25.8072,-25.8072 0,-14.2505 11.5567,-25.8072 25.8072,-25.8072z"/>
    <path id="_154550312" class="fil1 str8" d="M37.767 16.842c14.2121,0 25.7377,11.5255 25.7377,25.7376 0,14.2121 -11.5255,25.7376 -25.7377,25.7376 -14.2121,0 -25.7376,-11.5255 -25.7376,-25.7376 0,-14.2121 11.5255,-25.7376 25.7376,-25.7376z"/>
    <path id="_154333816" class="fil1 str9" d="M37.767 16.9116c14.1737,0 25.6681,11.4943 25.6681,25.6681 0,14.1737 -11.4944,25.6681 -25.6681,25.6681 -14.1737,0 -25.6681,-11.4943 -25.6681,-25.6681 0,-14.1737 11.4944,-25.6681 25.6681,-25.6681z"/>
    <path id="_154327696" class="fil1 str10" d="M37.767 16.9811c14.1353,0 25.5986,11.4632 25.5986,25.5985 0,14.1353 -11.4632,25.5985 -25.5986,25.5985 -14.1353,0 -25.5985,-11.4632 -25.5985,-25.5985 0,-14.1353 11.4632,-25.5985 25.5985,-25.5985z"/>
    <path id="_155542672" class="fil1 str11" d="M37.767 17.0507c14.097,0 25.529,11.432 25.529,25.529 0,14.097 -11.4321,25.529 -25.529,25.529 -14.0969,0 -25.529,-11.432 -25.529,-25.529 0,-14.097 11.4321,-25.529 25.529,-25.529z"/>
    <path id="_155549296" class="fil1 str12" d="M37.767 17.1202c14.0585,0 25.4595,11.4009 25.4595,25.4594 0,14.0585 -11.401,25.4594 -25.4595,25.4594 -14.0585,0 -25.4594,-11.4009 -25.4594,-25.4594 0,-14.0585 11.401,-25.4594 25.4594,-25.4594z"/>
    <path id="_155547808" class="fil1 str13" d="M37.767 17.1897c14.0201,0 25.3899,11.3698 25.3899,25.3899 0,14.0201 -11.3698,25.3899 -25.3899,25.3899 -14.0201,0 -25.3899,-11.3698 -25.3899,-25.3899 0,-14.0201 11.3698,-25.3899 25.3899,-25.3899z"/>
    <path id="_155546368" class="fil1 str14" d="M37.767 17.2593c13.9817,0 25.3204,11.3386 25.3204,25.3203 0,13.9817 -11.3387,25.3203 -25.3204,25.3203 -13.9817,0 -25.3203,-11.3386 -25.3203,-25.3203 0,-13.9817 11.3387,-25.3203 25.3203,-25.3203z"/>
    <path id="_155545216" class="fil1 str15" d="M37.767 17.3288c13.9433,0 25.2508,11.3075 25.2508,25.2508 0,13.9433 -11.3075,25.2508 -25.2508,25.2508 -13.9433,0 -25.2508,-11.3075 -25.2508,-25.2508 0,-13.9433 11.3075,-25.2508 25.2508,-25.2508z"/>
    <path id="_155423544" class="fil1 str16" d="M37.767 17.3984c13.9049,0 25.1813,11.2763 25.1813,25.1812 0,13.9049 -11.2764,25.1812 -25.1813,25.1812 -13.9049,0 -25.1812,-11.2763 -25.1812,-25.1812 0,-13.9049 11.2764,-25.1812 25.1812,-25.1812z"/>
    <path id="_155420880" class="fil1 str17" d="M37.767 17.4679c13.8665,0 25.1117,11.2452 25.1117,25.1117 0,13.8665 -11.2452,25.1117 -25.1117,25.1117 -13.8665,0 -25.1117,-11.2452 -25.1117,-25.1117 0,-13.8665 11.2452,-25.1117 25.1117,-25.1117z"/>
    <path id="_155427048" class="fil1 str18" d="M37.767 17.5375c13.8281,0 25.0422,11.214 25.0422,25.0421 0,13.8281 -11.2141,25.0421 -25.0422,25.0421 -13.8281,0 -25.0421,-11.214 -25.0421,-25.0421 0,-13.8281 11.2141,-25.0421 25.0421,-25.0421z"/>
    <path id="_155426784" class="fil1 str19" d="M37.767 17.607c13.7897,0 24.9726,11.1829 24.9726,24.9726 0,13.7897 -11.183,24.9726 -24.9726,24.9726 -13.7896,0 -24.9726,-11.1829 -24.9726,-24.9726 0,-13.7897 11.183,-24.9726 24.9726,-24.9726z"/>
    <path id="_155424768" class="fil1 str20" d="M37.767 17.6766c13.7513,0 24.9031,11.1517 24.9031,24.903 0,13.7513 -11.1518,24.903 -24.9031,24.903 -13.7512,0 -24.903,-11.1517 -24.903,-24.903 0,-13.7513 11.1518,-24.903 24.903,-24.903z"/>
    <path id="_155423088" class="fil1 str21" d="M37.767 17.7461c13.7129,0 24.8335,11.1206 24.8335,24.8335 0,13.7129 -11.1207,24.8335 -24.8335,24.8335 -13.7128,0 -24.8335,-11.1206 -24.8335,-24.8335 0,-13.7129 11.1207,-24.8335 24.8335,-24.8335z"/>
   </g>
   <path id="_154550000" class="fil1 str42" d="M37.7669 17.8158c13.6745,0 24.764,11.0894 24.764,24.7639 0,13.6745 -11.0895,24.7639 -24.764,24.7639 -13.6744,0 -24.7639,-11.0894 -24.7639,-24.7639 0,-13.6745 11.0895,-24.7639 24.7639,-24.7639z"/>
  </g>
  <g id="_130236864">
   <path id="_130366720" class="fil2 str43" d="M31.4682 61.566c-0.180587,-0.143552 -0.364628,-0.289831 -0.551396,-0.437927 0.273608,0.0421249 0.547306,0.072753 0.81996,0.092793 0.953287,0.0700719 2.14306,-0.00390803 3.1685,-0.372126 1.67055,-0.599974 2.27479,-0.907072 2.85304,-0.921705 0.578252,0.0146324 1.1825,0.321731 2.85304,0.921705 1.02545,0.368218 2.21522,0.442198 3.1685,0.372126 0.272653,-0.02004 0.546352,-0.0506681 0.81996,-0.092793 -0.186768,0.148096 -0.370809,0.294375 -0.551396,0.437927 -3.50505,2.78652 -4.90844,4.19323 -6.29011,4.22199 -1.38167,-0.0287649 -2.78506,-1.43547 -6.29011,-4.22199zm-0.75625 -4.23476l-0.981416 0.78297 0.353586 0.282969 1.03127 -0.743071 0.499001 -1.169 -0.355267 -0.284332 -0.54717 1.13047zm-3.25394 -1.96656l-0.981416 0.78297 0.353586 0.282969 1.03127 -0.743071 0.499001 -1.169 -0.355267 -0.284332 -0.54717 1.13047zm1.62697 0.983279c-0.327139,0.26102 -0.654277,0.521995 -0.981416,0.78297 0.117877,0.0943381 0.235754,0.188676 0.353586,0.282969 0.34377,-0.24766 0.687541,-0.495366 1.03127,-0.743071 0.166364,-0.389667 0.332683,-0.779334 0.499001,-1.169 -0.118422,-0.094747 -0.236845,-0.18954 -0.355267,-0.284332 -0.18236,0.376852 -0.364765,0.753659 -0.54717,1.13047zm15.9967 0.983279l0.981416 0.78297 -0.353586 0.282969 -1.03127 -0.743071 -0.499001 -1.169 0.355267 -0.284332 0.54717 1.13047zm1.62697 -0.983279c0.327139,0.26102 0.654277,0.521995 0.981416,0.78297 -0.117877,0.0943381 -0.235754,0.188676 -0.353586,0.282969 -0.34377,-0.24766 -0.687541,-0.495366 -1.03127,-0.743071 -0.166364,-0.389667 -0.332683,-0.779334 -0.499001,-1.169 0.118422,-0.094747 0.236845,-0.18954 0.355267,-0.284332 0.18236,0.376852 0.364765,0.753659 0.54717,1.13047zm1.62697 -0.983279l0.981416 0.78297 -0.353586 0.282969 -1.03127 -0.743071 -0.499001 -1.169 0.355267 -0.284332 0.54717 1.13047zm-10.5773 3.91467c-0.328047,-0.00545307 -0.64946,-0.0725712 -0.813779,-0.201536 -0.475008,-0.372763 -1.05117,-0.919114 -1.35268,-1.27761 -0.575253,-0.684087 -1.23103,-1.31578 -1.9203,-1.8943 0.337272,-0.0677544 0.809281,-0.309961 1.35191,-0.58834 1.15914,-0.594748 1.95033,-0.897257 2.73485,-0.907981 0.784515,0.0107244 1.57571,0.313233 2.73485,0.907981 0.542626,0.278379 1.01463,0.520586 1.35191,0.58834 -0.689268,0.578525 -1.34504,1.21022 -1.9203,1.8943 -0.301509,0.358494 -0.877671,0.904846 -1.35268,1.27761 -0.164319,0.128965 -0.485732,0.196083 -0.813779,0.201536zm0 -5.50573c-0.918433,0.00954287 -1.84118,0.322594 -3.04367,0.939563 -0.551351,0.282878 -1.02027,0.523494 -1.2134,0.531947 -1.06707,0.0470327 -1.4611,-1.26616 -1.53436,-3.01673 -0.0800238,-1.91185 0.145915,-4.34814 0.421022,-6.22781 0.703764,-2.23498 2.55158,-3.82578 2.34118,-5.11121 -0.202218,-1.23562 -2.42566,-3.52918 -3.34973,-4.44211 -0.578116,-1.40053 -0.666819,-2.77161 -0.320549,-4.06181 0.348587,-1.29888 1.13905,-2.52332 2.3161,-3.62106 1.05549,-0.984369 2.41903,-1.86577 4.0519,-2.60761 0.149641,-0.068027 0.245797,-0.106108 0.331501,-0.116332 0.085704,0.0102245 0.18186,0.0483051 0.331501,0.116332 1.63288,0.741844 2.99641,1.62324 4.0519,2.60761 1.17704,1.09775 1.96751,2.32219 2.3161,3.62106 0.34627,1.2902 0.257567,2.66128 -0.320549,4.06181 -0.924068,0.912934 -3.14751,3.20649 -3.34973,4.44211 -0.210398,1.28542 1.63742,2.87622 2.34118,5.11121 0.275107,1.87967 0.501046,4.31597 0.421022,6.22781 -0.0732529,1.75057 -0.467282,3.06376 -1.53436,3.01673 -0.193129,-0.00845225 -0.662048,-0.249069 -1.2134,-0.531947 -1.20249,-0.616969 -2.12524,-0.930021 -3.04367,-0.939563zm0 -28.5611c-0.178179,-4.54422e-005 -0.360039,-0.000363538 -0.564938,-0.000954287 -2.64992,-0.00827049 -3.86427,-1.15882 -5.87841,-2.67223 -3.5654,-2.679 -7.11653,-4.94261 -11.1129,-6.90699 -1.75521,-0.862721 -3.42366,-1.68286 -5.24222,-2.86718 -1.72917,-1.12606 -3.51886,-2.15537 -5.24799,-3.28143l-1.42866 -0.930384 0.962694 1.40703c2.80456,4.09912 3.87559,7.78148 4.37363,12.6278 0.34836,3.38876 0.638645,6.20773 3.34509,9.62921 -0.493684,0.881261 -0.996866,1.97197 -1.29656,3.47433 -0.319413,1.60129 -0.407844,3.67091 -0.00554395,6.45439 1.10156,7.62093 -2.19436,13.3491 -7.26144,18.8022l-1.79074 1.92716 2.22212 -1.40794c3.03954,-1.92584 6.12834,-3.47029 8.90268,-4.24703 2.38758,-0.668501 4.53277,-0.767247 6.19341,-0.0447606 0.442971,0.19272 0.922477,0.449151 1.42484,0.750796 0.749615,0.961421 1.62151,1.67805 2.55667,2.19513 0.460148,0.254431 0.935292,0.460193 1.41843,0.622877 0.591567,0.459921 1.16986,0.919569 1.7164,1.354 1.80524,1.43497 4.57821,4.94034 6.71345,4.86459 2.13524,0.0757522 4.90821,-3.42962 6.71345,-4.86459 0.546534,-0.434428 1.12483,-0.894076 1.7164,-1.354 0.483142,-0.162683 0.958286,-0.368446 1.41843,-0.622877 0.935156,-0.517087 1.80706,-1.23371 2.55667,-2.19513 0.502364,-0.301645 0.98187,-0.558076 1.42484,-0.750796 1.66064,-0.722486 3.80583,-0.62374 6.19341,0.0447606 2.77434,0.776744 5.86314,2.32119 8.90268,4.24703l2.22212 1.40794 -1.79074 -1.92716c-5.06708,-5.45307 -8.36301,-11.1812 -7.26144,-18.8022 0.4023,-2.78347 0.313869,-4.85309 -0.00554395,-6.45439 -0.299691,-1.50237 -0.802873,-2.59307 -1.29656,-3.47433 2.70645,-3.42148 2.99673,-6.24044 3.34509,-9.62921 0.498047,-4.84628 1.56907,-8.52864 4.37363,-12.6278l0.962694 -1.40703 -1.42866 0.930384c-1.72912,1.12606 -3.51882,2.15537 -5.24799,3.28143 -1.81855,1.18432 -3.48701,2.00446 -5.24222,2.86718 -3.99642,1.96438 -7.54754,4.22799 -11.1129,6.90699 -2.01414,1.51341 -3.22849,2.66396 -5.87841,2.67223 -0.204899,0.000590749 -0.386759,0.000908845 -0.564938,0.000954287zm20.4303 6.36518c-1.76666,-3.15601 -2.71863,-5.87945 -2.87281,-8.2339 0.757022,0.4681 1.45406,1.12988 2.22999,2.02431 0.705854,0.813598 1.4771,1.81973 2.41825,3.04767l0.0417614 0.0544852c-0.414569,1.00573 -0.991186,2.02813 -1.81719,3.10743zm-4.13965 6.37114c1.69895,-1.28083 3.11134,-2.91248 4.2842,-4.68228 0.332137,0.694312 0.640372,1.522 0.847089,2.55826 0.26252,1.31605 0.361357,2.96842 0.13919,5.11043 -0.359357,0.192448 -0.596702,-0.0370354 -0.868855,-0.274062 -1.32919,-1.1576 -3.31787,-2.71826 -4.52118,-2.2548 0.0430792,-0.0915661 0.103427,-0.194447 0.119558,-0.457558zm-14.2024 -11.6643c1.23639,0.399846 2.63724,1.19159 3.90667,2.21917 2.30038,1.86222 3.99605,4.18341 3.72667,7.20882 2.70713,-1.36549 5.87459,-1.86568 8.77921,-0.805782 -0.867947,1.02368 -1.84736,1.95729 -2.94252,2.73539 -2.6491,-0.408026 -6.08017,0.524585 -10.3656,2.92166 1.03313,-1.10775 1.3579,-2.7518 1.81464,-3.85823 0.637873,-1.54526 0.734392,-3.06308 0.349814,-4.49587 -0.38226,-1.4242 -1.23894,-2.75743 -2.51041,-3.94325 -0.770382,-0.718487 -1.6945,-1.38344 -2.75852,-1.98192zm19.115 18.4758c-0.086931,5.70945 2.29624,10.4378 6.14951,14.9609 -2.45279,-1.40894 -4.89522,-2.52563 -7.14584,-3.15574 -2.53231,-0.70899 -4.83128,-0.803419 -6.64865,-0.0127693 -0.147369,0.064119 -0.298283,0.134873 -0.452241,0.211306 0.629375,-1.58752 0.302691,-3.63224 -0.0591658,-5.17223 -0.372853,0.0719805 -0.741663,0.153549 -1.10629,0.244934 -1.49537,-0.163956 -2.75021,-0.541353 -3.71949,-1.17191 -0.941018,-0.612198 -1.61511,-1.46737 -1.98114,-2.60266 -0.0838409,-0.711534 -0.17986,-1.40244 -0.272199,-2.03627 1.25293,-3.81956 5.67719,-0.99982 9.42131,-6.10694 0.466464,-0.636282 1.15932,-0.0341726 0.990277,0.807281 -0.302282,0.467782 -0.658367,0.917433 -1.1566,1.35086 -1.54363,1.34291 -3.58903,2.21826 -5.7528,3.08462 -2.98319,1.19449 -2.47038,5.40735 2.30556,5.00014 0.931293,-0.0793876 2.76925,-0.620332 3.92039,-2.80383 0.711671,-1.34982 1.16032,-3.33151 0.959422,-6.22695 0.120104,-0.177406 0.232801,-0.359539 0.34118,-0.544171 1.08112,-1.05671 2.81328,0.278334 3.24803,0.963148 0.60011,0.945335 0.753432,2.0893 0.95874,3.21027zm-10.4528 0.366855c0.468464,-0.196947 0.901619,-0.386804 1.30487,-0.573935 1.76557,0.556349 -0.294102,2.29488 0.89344,1.98642 0.478507,-0.124239 0.666228,-0.533673 0.576526,-0.937473 -0.111742,-0.502955 -0.507317,-1.07734 -0.377443,-1.58898 1.14955,-0.610016 2.31283,-1.39444 3.08485,-2.31892 0.108152,2.51155 -0.305008,4.25203 -0.937928,5.45252 -1.05308,1.9975 -2.71545,2.49073 -3.55649,2.56244 -1.53072,0.13051 -4.25707,-0.491821 -3.58198,-2.64606 0.181587,-0.579479 0.648597,-1.11506 1.37926,-1.43743 1.49273,0.498138 0.315914,2.70736 1.47106,2.27043 0.930293,-0.351859 -0.599474,-1.8211 -0.256158,-2.76902zm0.359857 6.93676c-1.7608,0.523358 -3.42071,1.28715 -4.97252,2.31401 0.197628,-0.591567 0.299101,-1.31919 0.332728,-2.12288 0.0398074,-0.951469 -0.0141325,-2.01314 -0.111879,-3.07108 0.409162,0.723577 0.973327,1.30769 1.67745,1.76575 0.837,0.544489 1.87027,0.908072 3.07421,1.1142zm1.52527 0.173317c0.302918,1.44783 0.518405,3.68277 -0.381397,4.97588 -0.761294,1.09407 -1.67727,1.88363 -2.66782,2.43139 -1.14033,0.630556 -2.38222,0.943426 -3.60307,1.03317 -1.29583,0.095156 -3.45456,-0.102063 -4.34255,-1.2248 0.956241,-1.72221 2.7289,-3.16919 4.32569,-4.29833 1.99432,-1.41039 4.23976,-2.41625 6.63402,-2.91957l0.0351268 0.00227211zm9.89345 -24.5175c-0.867174,-1.13074 -1.59361,-2.07021 -2.2692,-2.84509 -0.821959,-0.942654 -2.67864,-2.74757 -2.69063,-3.00814 0.244706,-2.8246 2.03436,-5.29102 4.42853,-6.73408 0.365174,-0.254113 0.768701,-0.520859 1.19986,-0.805872 1.00323,-0.663138 2.15242,-1.42275 3.11466,-2.20486 -1.90062,3.26843 -2.46915,6.69541 -2.84959,10.3972 -0.189494,1.84336 -0.36122,3.51259 -0.933611,5.20082zm-3.57503 6.63243c-2.63783,-1.04958 -5.8984,-0.889759 -8.48461,0.239253 -0.0720714,-2.65028 -2.09248,-5.03368 -4.04572,-6.61493 -1.23185,-0.997184 -2.59352,-1.78533 -3.84019,-2.23671 1.61434,-0.336909 2.98574,-1.69422 4.2673,-2.65719 3.53018,-2.65251 7.04673,-4.8954 11.0038,-6.84046 1.77743,-0.873672 3.46701,-1.70417 5.3141,-2.90708 0.326775,-0.208898 0.724713,-0.436836 1.2114,-0.703991 -0.286286,0.227666 -0.649506,0.527902 -1.55794,1.12838 -0.0806599,0.0533037 -1.21776,0.807372 -1.2129,0.814188 -2.87808,1.91257 -4.46293,4.27884 -4.71904,7.23427 -0.332274,3.83519 1.52668,7.53968 3.32514,10.7658 -0.403391,0.629602 -0.823686,1.2228 -1.26134,1.77852zm-39.3842 -2.77443c-0.826003,-1.0793 -1.40262,-2.1017 -1.81719,-3.10743l0.0417614 -0.0544852c0.941154,-1.22794 1.7124,-2.23408 2.41825,-3.04767 0.775926,-0.894439 1.47296,-1.55621 2.22999,-2.02431 -0.154185,2.35445 -1.10615,5.0779 -2.87281,8.2339zm4.13965 6.37114c0.016132,0.26311 0.0764793,0.365992 0.119558,0.457558 -1.20331,-0.463465 -3.192,1.0972 -4.52118,2.2548 -0.272153,0.237027 -0.509498,0.46651 -0.868855,0.274062 -0.222167,-2.14201 -0.12333,-3.79438 0.13919,-5.11043 0.206717,-1.03626 0.514951,-1.86395 0.847089,-2.55826 1.17286,1.76979 2.58525,3.40144 4.2842,4.68228zm14.2024 -11.6643c-1.06403,0.598474 -1.98814,1.26343 -2.75852,1.98192 -1.27147,1.18581 -2.12815,2.51904 -2.51041,3.94325 -0.384578,1.43279 -0.288058,2.95061 0.349814,4.49587 0.45674,1.10643 0.781515,2.75048 1.81464,3.85823 -4.28538,-2.39708 -7.71645,-3.32969 -10.3656,-2.92166 -1.09516,-0.778107 -2.07457,-1.71172 -2.94252,-2.73539 2.90462,-1.05989 6.07208,-0.559712 8.77921,0.805782 -0.269382,-3.02541 1.4263,-5.3466 3.72667,-7.20882 1.26943,-1.02759 2.67028,-1.81932 3.90667,-2.21917zm-19.115 18.4758c0.205308,-1.12097 0.35863,-2.26493 0.95874,-3.21027 0.434746,-0.684814 2.16691,-2.01986 3.24803,-0.963148 0.10838,0.184632 0.221076,0.366764 0.34118,0.544171 -0.2009,2.89544 0.247751,4.87713 0.959422,6.22695 1.15114,2.1835 2.9891,2.72444 3.92039,2.80383 4.77593,0.407208 5.28875,-3.80565 2.30556,-5.00014 -2.16378,-0.866356 -4.20918,-1.74171 -5.7528,-3.08462 -0.498229,-0.433428 -0.854314,-0.883079 -1.1566,-1.35086 -0.169045,-0.841454 0.523813,-1.44356 0.990277,-0.807281 3.74412,5.10712 8.16838,2.28738 9.42131,6.10694 -0.0923386,0.633828 -0.188358,1.32473 -0.272199,2.03627 -0.366037,1.13528 -1.04013,1.99046 -1.98114,2.60266 -0.969283,0.630556 -2.22412,1.00795 -3.71949,1.17191 -0.364628,-0.0913843 -0.733438,-0.172953 -1.10629,-0.244934 -0.361856,1.53999 -0.688541,3.58471 -0.0591658,5.17223 -0.153958,-0.0764338 -0.304872,-0.147187 -0.452241,-0.211306 -1.81737,-0.790649 -4.11634,-0.69622 -6.64865,0.0127693 -2.25062,0.630102 -4.69305,1.7468 -7.14584,3.15574 3.85327,-4.52314 6.23645,-9.25145 6.14951,-14.9609zm10.4528 0.366855c0.343316,0.947925 -1.18645,2.41716 -0.256158,2.76902 1.15514,0.436927 -0.0216759,-1.77229 1.47106,-2.27043 0.730666,0.322367 1.19768,0.857949 1.37926,1.43743 0.67509,2.15423 -2.05126,2.77657 -3.58198,2.64606 -0.841045,-0.0717078 -2.50341,-0.564938 -3.55649,-2.56244 -0.632919,-1.20049 -1.04608,-2.94098 -0.937928,-5.45252 0.772018,0.924477 1.93529,1.7089 3.08485,2.31892 0.129874,0.511634 -0.265701,1.08602 -0.377443,1.58898 -0.089703,0.4038 0.0980189,0.813234 0.576526,0.937473 1.18754,0.308462 -0.872127,-1.43007 0.89344,-1.98642 0.403254,0.187131 0.83641,0.376989 1.30487,0.573935zm-0.359857 6.93676c1.20395,-0.206126 2.23721,-0.569709 3.07421,-1.1142 0.704127,-0.458058 1.26829,-1.04217 1.67745,-1.76575 -0.0977462,1.05794 -0.151686,2.11961 -0.111879,3.07108 0.0336272,0.803691 0.1351,1.53131 0.332728,2.12288 -1.55181,-1.02686 -3.21172,-1.79065 -4.97252,-2.31401zm-1.52527 0.173317l0.0351268 -0.00227211c2.39426,0.503318 4.6397,1.50918 6.63402,2.91957 1.59679,1.12915 3.36945,2.57612 4.32569,4.29833 -0.887987,1.12274 -3.04672,1.31996 -4.34255,1.2248 -1.22085,-0.0897484 -2.46274,-0.402618 -3.60307,-1.03317 -0.99055,-0.547761 -1.90653,-1.33732 -2.66782,-2.43139 -0.899802,-1.2931 -0.684314,-3.52804 -0.381397,-4.97588zm-9.89345 -24.5175c-0.57239,-1.68822 -0.744116,-3.35745 -0.933611,-5.20082 -0.380442,-3.70181 -0.94897,-7.12879 -2.84959,-10.3972 0.962239,0.782106 2.11143,1.54172 3.11466,2.20486 0.431156,0.285014 0.834683,0.551759 1.19986,0.805872 2.39417,1.44306 4.18382,3.90949 4.42853,6.73408 -0.0119967,0.260566 -1.86868,2.06549 -2.69063,3.00814 -0.67559,0.774881 -1.40203,1.71435 -2.2692,2.84509zm3.57503 6.63243c-0.437654,-0.555713 -0.857949,-1.14892 -1.26134,-1.77852 1.79847,-3.22608 3.65742,-6.93058 3.32514,-10.7658 -0.256112,-2.95543 -1.84096,-5.32169 -4.71904,-7.23427 0.00486232,-0.00681633 -1.13224,-0.760885 -1.2129,-0.814188 -0.908436,-0.600474 -1.27166,-0.90071 -1.55794,-1.12838 0.486686,0.267155 0.884624,0.495093 1.2114,0.703991 1.84709,1.2029 3.53668,2.0334 5.3141,2.90708 3.95706,1.94506 7.47361,4.18796 11.0038,6.84046 1.28156,0.962966 2.65296,2.32028 4.2673,2.65719 -1.24666,0.451378 -2.60834,1.23953 -3.84019,2.23671 -1.95324,1.58125 -3.97365,3.96465 -4.04572,6.61493 -2.58621,-1.12901 -5.84678,-1.28883 -8.48461,-0.239253z"/>
   <g>
    <g>
     <path id="_154547816" class="fil3 str43" d="M44.7211 43.1957c6.04327,-0.319504 6.52037,-2.55417 7.67274,-4.90885 -6.17646,-0.0580752 -7.54014,2.97106 -7.67274,4.90885zm2.68863 -2.34964l0.520495 -1.75421 0.520495 1.75421 -0.520495 1.75416 -0.520495 -1.75416z"/>
     <path id="_154547840" class="fil3 str43" d="M30.7954 43.1957c-6.04327,-0.319504 -6.52037,-2.55417 -7.67274,-4.90885 6.17646,-0.0580752 7.54014,2.97106 7.67274,4.90885zm-2.68863 -2.34964l-0.520495 -1.75421 -0.520495 1.75421 0.520495 1.75416 0.520495 -1.75416z"/>
    </g>
    <path id="_154547552" class="fil3 str43" d="M40.4931 55.3176c-1.15914,-0.594748 -1.95033,-0.897257 -2.73485,-0.907981 -0.784515,0.0107244 -1.57571,0.313233 -2.73485,0.907981 -0.542626,0.278379 -1.01463,0.520586 -1.35191,0.58834 0.689268,0.578525 1.34504,1.21022 1.9203,1.8943 0.301509,0.358494 0.877671,0.904846 1.35268,1.27761 0.164319,0.128965 0.485732,0.196083 0.813779,0.201536 0.328047,-0.00545307 0.64946,-0.0725712 0.813779,-0.201536 0.475008,-0.372763 1.05117,-0.919114 1.35268,-1.27761 0.575253,-0.684087 1.23103,-1.31578 1.9203,-1.8943 -0.337272,-0.0677544 -0.809281,-0.309961 -1.35191,-0.58834z"/>
   </g>
   <g>
    <path id="_154547264" class="fil4 str43" d="M20.1892 21.8665c-0.244706,-2.8246 -2.03436,-5.29102 -4.42853,-6.73408 -0.365174,-0.254113 -0.768701,-0.520859 -1.19986,-0.805872 -1.00323,-0.663138 -2.15242,-1.42275 -3.11466,-2.20486 1.90062,3.26843 2.46915,6.69541 2.84959,10.3972 0.189494,1.84336 0.36122,3.51259 0.933611,5.20082 0.867174,-1.13074 1.59361,-2.07021 2.2692,-2.84509 0.821959,-0.942654 2.67864,-2.74757 2.69063,-3.00814z"/>
    <path id="_154547600" class="fil4 str43" d="M17.328 31.5778c1.76666,-3.15601 2.71863,-5.87945 2.87281,-8.2339 -0.757022,0.4681 -1.45406,1.12988 -2.22999,2.02431 -0.705854,0.813598 -1.4771,1.81973 -2.41825,3.04767l-0.0417614 0.0544852c0.414569,1.00573 0.991186,2.02813 1.81719,3.10743z"/>
    <path id="_154547648" class="fil4 str43" d="M35.1749 25.7398c-1.61434,-0.336909 -2.98574,-1.69422 -4.2673,-2.65719 -3.53018,-2.65251 -7.04673,-4.8954 -11.0038,-6.84046 -1.77743,-0.873672 -3.46701,-1.70417 -5.3141,-2.90708 -0.326775,-0.208898 -0.724713,-0.436836 -1.2114,-0.703991 0.286286,0.227666 0.649506,0.527902 1.55794,1.12838 0.0806599,0.0533037 1.21776,0.807372 1.2129,0.814188 2.87808,1.91257 4.46293,4.27884 4.71904,7.23427 0.332274,3.83519 -1.52668,7.53968 -3.32514,10.7658 0.403391,0.629602 0.823686,1.2228 1.26134,1.77852 2.63783,-1.04958 5.8984,-0.889759 8.48461,0.239253 0.0720714,-2.65028 2.09248,-5.03368 4.04572,-6.61493 1.23185,-0.997184 2.59352,-1.78533 3.84019,-2.23671z"/>
    <path id="_154548320" class="fil4 str43" d="M44.4578 32.3855c-0.348587,-1.29888 -1.13905,-2.52332 -2.3161,-3.62106 -1.05549,-0.984369 -2.41903,-1.86577 -4.0519,-2.60761 -0.149641,-0.068027 -0.245797,-0.106108 -0.331501,-0.116332 -0.085704,0.0102245 -0.18186,0.0483051 -0.331501,0.116332 -1.63288,0.741844 -2.99641,1.62324 -4.0519,2.60761 -1.17704,1.09775 -1.96751,2.32219 -2.3161,3.62106 -0.34627,1.2902 -0.257567,2.66128 0.320549,4.06181 0.924068,0.912934 3.14751,3.20649 3.34973,4.44211 0.210398,1.28542 -1.63742,2.87622 -2.34118,5.11121 -0.275107,1.87967 -0.501046,4.31597 -0.421022,6.22781 0.0732529,1.75057 0.467282,3.06376 1.53436,3.01673 0.193129,-0.00845225 0.662048,-0.249069 1.2134,-0.531947 1.20249,-0.616969 2.12524,-0.930021 3.04367,-0.939563 0.918433,0.00954287 1.84118,0.322594 3.04367,0.939563 0.551351,0.282878 1.02027,0.523494 1.2134,0.531947 1.06707,0.0470327 1.4611,-1.26616 1.53436,-3.01673 0.0800238,-1.91185 -0.145915,-4.34814 -0.421022,-6.22781 -0.703764,-2.23498 -2.55158,-3.82578 -2.34118,-5.11121 0.202218,-1.23562 2.42566,-3.52918 3.34973,-4.44211 0.578116,-1.40053 0.666819,-2.77161 0.320549,-4.06181z"/>
    <path id="_154548104" class="fil4 str43" d="M32.5656 40.5638c-1.03313,-1.10775 -1.3579,-2.7518 -1.81464,-3.85823 -0.637873,-1.54526 -0.734392,-3.06308 -0.349814,-4.49587 0.38226,-1.4242 1.23894,-2.75743 2.51041,-3.94325 0.770382,-0.718487 1.6945,-1.38344 2.75852,-1.98192 -1.23639,0.399846 -2.63724,1.19159 -3.90667,2.21917 -2.30038,1.86222 -3.99605,4.18341 -3.72667,7.20882 -2.70713,-1.36549 -5.87459,-1.86568 -8.77921,-0.805782 0.867947,1.02368 1.84736,1.95729 2.94252,2.73539 2.6491,-0.408026 6.08017,0.524585 10.3656,2.92166z"/>
    <path id="_154548656" class="fil4 str43" d="M56.259 34.9068c-2.90462,-1.05989 -6.07208,-0.559712 -8.77921,0.805782 0.269382,-3.02541 -1.4263,-5.3466 -3.72667,-7.20882 -1.26943,-1.02759 -2.67028,-1.81932 -3.90667,-2.21917 1.06403,0.598474 1.98814,1.26343 2.75852,1.98192 1.27147,1.18581 2.12815,2.51904 2.51041,3.94325 0.384578,1.43279 0.288058,2.95061 -0.349814,4.49587 -0.45674,1.10643 -0.781515,2.75048 -1.81464,3.85823 4.28538,-2.39708 7.71645,-3.32969 10.3656,-2.92166 1.09516,-0.778107 2.07457,-1.71172 2.94252,-2.73539z"/>
    <path id="_154547912" class="fil4 str43" d="M57.9735 32.5737c-1.79847,-3.22608 -3.65742,-6.93058 -3.32514,-10.7658 0.256112,-2.95543 1.84096,-5.32169 4.71904,-7.23427 -0.00486232,-0.00681633 1.13224,-0.760885 1.2129,-0.814188 0.908436,-0.600474 1.27166,-0.90071 1.55794,-1.12838 -0.486686,0.267155 -0.884624,0.495093 -1.2114,0.703991 -1.84709,1.2029 -3.53668,2.0334 -5.3141,2.90708 -3.95706,1.94506 -7.47361,4.18796 -11.0038,6.84046 -1.28156,0.962966 -2.65296,2.32028 -4.2673,2.65719 1.24666,0.451378 2.60834,1.23953 3.84019,2.23671 1.95324,1.58125 3.97365,3.96465 4.04572,6.61493 2.58621,-1.12901 5.84678,-1.28883 8.48461,-0.239253 0.437654,-0.555713 0.857949,-1.14892 1.26134,-1.77852z"/>
    <path id="_154548536" class="fil4 str43" d="M59.964 28.4158c-0.941154,-1.22794 -1.7124,-2.23408 -2.41825,-3.04767 -0.775926,-0.894439 -1.47296,-1.55621 -2.22999,-2.02431 0.154185,2.35445 1.10615,5.0779 2.87281,8.2339 0.826003,-1.0793 1.40262,-2.1017 1.81719,-3.10743l-0.0417614 -0.0544852z"/>
    <path id="_154548464" class="fil4 str43" d="M61.2208 22.5189c0.380442,-3.70181 0.94897,-7.12879 2.84959,-10.3972 -0.962239,0.782106 -2.11143,1.54172 -3.11466,2.20486 -0.431156,0.285014 -0.834683,0.551759 -1.19986,0.805872 -2.39417,1.44306 -4.18382,3.90949 -4.42853,6.73408 0.0119967,0.260566 1.86868,2.06549 2.69063,3.00814 0.67559,0.774881 1.40203,1.71435 2.2692,2.84509 0.57239,-1.68822 0.744116,-3.35745 0.933611,-5.20082z"/>
    <path id="_154548224" class="fil4 str43" d="M59.3194 40.9353c0.222167,-2.14201 0.12333,-3.79438 -0.13919,-5.11043 -0.206717,-1.03626 -0.514951,-1.86395 -0.847089,-2.55826 -1.17286,1.76979 -2.58525,3.40144 -4.2842,4.68228 -0.016132,0.26311 -0.0764793,0.365992 -0.119558,0.457558 1.20331,-0.463465 3.192,1.0972 4.52118,2.2548 0.272153,0.237027 0.509498,0.46651 0.868855,0.274062z"/>
    <path id="_154547984" class="fil4 str43" d="M21.4676 37.9489c-1.69895,-1.28083 -3.11134,-2.91248 -4.2842,-4.68228 -0.332137,0.694312 -0.640372,1.522 -0.847089,2.55826 -0.26252,1.31605 -0.361357,2.96842 -0.13919,5.11043 0.359357,0.192448 0.596702,-0.0370354 0.868855,-0.274062 1.32919,-1.1576 3.31787,-2.71826 4.52118,-2.2548 -0.0430792,-0.0915661 -0.103427,-0.194447 -0.119558,-0.457558z"/>
    <path id="_154548752" class="fil4 str43" d="M25.9828 50.1619c-0.931293,-0.0793876 -2.76925,-0.620332 -3.92039,-2.80383 -0.711671,-1.34982 -1.16032,-3.33151 -0.959422,-6.22695 -0.120104,-0.177406 -0.232801,-0.359539 -0.34118,-0.544171 -1.08112,-1.05671 -2.81328,0.278334 -3.24803,0.963148 -0.60011,0.945335 -0.753432,2.0893 -0.95874,3.21027 0.086931,5.70945 -2.29624,10.4378 -6.14951,14.9609 2.45279,-1.40894 4.89522,-2.52563 7.14584,-3.15574 2.53231,-0.70899 4.83128,-0.803419 6.64865,-0.0127693 0.147369,0.064119 0.298283,0.134873 0.452241,0.211306 -0.629375,-1.58752 -0.302691,-3.63224 0.0591658,-5.17223 0.372853,0.0719805 0.741663,0.153549 1.10629,0.244934 1.49537,-0.163956 2.75021,-0.541353 3.71949,-1.17191 0.941018,-0.612198 1.61511,-1.46737 1.98114,-2.60266 0.0838409,-0.711534 0.17986,-1.40244 0.272199,-2.03627 -1.25293,-3.81956 -5.67719,-0.99982 -9.42131,-6.10694 -0.466464,-0.636282 -1.15932,-0.0341726 -0.990277,0.807281 0.302282,0.467782 0.658367,0.917433 1.1566,1.35086 1.54363,1.34291 3.58903,2.21826 5.7528,3.08462 2.98319,1.19449 2.47038,5.40735 -2.30556,5.00014z"/>
    <path id="_154549040" class="fil4 str43" d="M65.111 59.7212c-3.85327,-4.52314 -6.23645,-9.25145 -6.14951,-14.9609 -0.205308,-1.12097 -0.35863,-2.26493 -0.95874,-3.21027 -0.434746,-0.684814 -2.16691,-2.01986 -3.24803,-0.963148 -0.10838,0.184632 -0.221076,0.366764 -0.34118,0.544171 0.2009,2.89544 -0.247751,4.87713 -0.959422,6.22695 -1.15114,2.1835 -2.9891,2.72444 -3.92039,2.80383 -4.77593,0.407208 -5.28875,-3.80565 -2.30556,-5.00014 2.16378,-0.866356 4.20918,-1.74171 5.7528,-3.08462 0.498229,-0.433428 0.854314,-0.883079 1.1566,-1.35086 0.169045,-0.841454 -0.523813,-1.44356 -0.990277,-0.807281 -3.74412,5.10712 -8.16838,2.28738 -9.42131,6.10694 0.0923386,0.633828 0.188358,1.32473 0.272199,2.03627 0.366037,1.13528 1.04013,1.99046 1.98114,2.60266 0.969283,0.630556 2.22412,1.00795 3.71949,1.17191 0.364628,-0.0913843 0.733438,-0.172953 1.10629,-0.244934 0.361856,1.53999 0.688541,3.58471 0.0591658,5.17223 0.153958,-0.0764338 0.304872,-0.147187 0.452241,-0.211306 1.81737,-0.790649 4.11634,-0.69622 6.64865,0.0127693 2.25062,0.630102 4.69305,1.7468 7.14584,3.15574z"/>
    <path id="_154549256" class="fil4 str43" d="M43.7798 61.2209c-0.953287,0.0700719 -2.14306,-0.00390803 -3.1685,-0.372126 -1.67055,-0.599974 -2.27479,-0.907072 -2.85304,-0.921705 -0.578252,0.0146324 -1.1825,0.321731 -2.85304,0.921705 -1.02545,0.368218 -2.21522,0.442198 -3.1685,0.372126 -0.272653,-0.02004 -0.546352,-0.0506681 -0.81996,-0.092793l0.551396 0.437927c3.50505,2.78652 4.90844,4.19323 6.29011,4.22199 1.38167,-0.0287649 2.78506,-1.43547 6.29011,-4.22199l0.551396 -0.437927c-0.273608,0.0421249 -0.547306,0.072753 -0.81996,0.092793z"/>
    <path id="_154549016" class="fil4 str43" d="M31.2878 52.2551c-0.0398074,-0.951469 0.0141325,-2.01314 0.111879,-3.07108 -0.409162,0.723577 -0.973327,1.30769 -1.67745,1.76575 -0.837,0.544489 -1.87027,0.908072 -3.07421,1.1142 1.7608,0.523358 3.42071,1.28715 4.97252,2.31401 -0.197628,-0.591567 -0.299101,-1.31919 -0.332728,-2.12288z"/>
    <path id="_154548848" class="fil4 str43" d="M48.8685 52.0639c-1.20395,-0.206126 -2.23721,-0.569709 -3.07421,-1.1142 -0.704127,-0.458058 -1.26829,-1.04217 -1.67745,-1.76575 0.0977462,1.05794 0.151686,2.11961 0.111879,3.07108 -0.0336272,0.803691 -0.1351,1.53131 -0.332728,2.12288 1.55181,-1.02686 3.21172,-1.79065 4.97252,-2.31401z"/>
    <path id="_154548896" class="fil4 str43" d="M44.6782 57.6541l-0.499001 -1.169 0.355267 -0.284332 0.54717 1.13047 0.981416 0.78297 -0.353586 0.282969 -1.03127 -0.743071zm1.62697 -0.983279l-0.499001 -1.169 0.355267 -0.284332 0.54717 1.13047 0.981416 0.78297 -0.353586 0.282969 -1.03127 -0.743071zm1.62697 -0.983279l-0.499001 -1.169 0.355267 -0.284332 0.54717 1.13047 0.981416 0.78297 -0.353586 0.282969 -1.03127 -0.743071zm2.08021 1.52554c0.899802,-1.2931 0.684314,-3.52804 0.381397,-4.97588l-0.0351268 -0.00227211c-2.39426,0.503318 -4.6397,1.50918 -6.63402,2.91957 -1.59679,1.12915 -3.36945,2.57612 -4.32569,4.29833 0.887987,1.12274 3.04672,1.31996 4.34255,1.2248 1.22085,-0.0897484 2.46274,-0.402618 3.60307,-1.03317 0.99055,-0.547761 1.90653,-1.33732 2.66782,-2.43139z"/>
    <path id="_154548680" class="fil4 str43" d="M36.1176 59.4529c-0.956241,-1.72221 -2.7289,-3.16919 -4.32569,-4.29833 -1.99432,-1.41039 -4.23976,-2.41625 -6.63402,-2.91957l-0.0351268 0.00227211c-0.302918,1.44783 -0.518405,3.68277 0.381397,4.97588 0.761294,1.09407 1.67727,1.88363 2.66782,2.43139 1.14033,0.630556 2.38222,0.943426 3.60307,1.03317 1.29583,0.095156 3.45456,-0.102063 4.34255,-1.2248zm-5.00228 -1.79874l-1.03127 0.743071 -0.353586 -0.282969 0.981416 -0.78297 0.54717 -1.13047 0.355267 0.284332 -0.499001 1.169zm-1.62697 -0.983279l-1.03127 0.743071 -0.353586 -0.282969 0.981416 -0.78297 0.54717 -1.13047 0.355267 0.284332 -0.499001 1.169zm-1.62697 -0.983279l-1.03127 0.743071 -0.353586 -0.282969 0.981416 -0.78297 0.54717 -1.13047 0.355267 0.284332 -0.499001 1.169z"/>
    <path id="_154548776" class="fil4 str43" d="M49.4964 49.7093c0.841045,-0.0717078 2.50341,-0.564938 3.55649,-2.56244 0.632919,-1.20049 1.04608,-2.94098 0.937928,-5.45252 -0.772018,0.924477 -1.93529,1.7089 -3.08485,2.31892 -0.129874,0.511634 0.265701,1.08602 0.377443,1.58898 0.089703,0.4038 -0.0980189,0.813234 -0.576526,0.937473 -1.18754,0.308462 0.872127,-1.43007 -0.89344,-1.98642 -0.403254,0.187131 -0.83641,0.376989 -1.30487,0.573935 -0.343316,0.947925 1.18645,2.41716 0.256158,2.76902 -1.15514,0.436927 0.0216759,-1.77229 -1.47106,-2.27043 -0.730666,0.322367 -1.19768,0.857949 -1.37926,1.43743 -0.67509,2.15423 2.05126,2.77657 3.58198,2.64606z"/>
    <path id="_154549688" class="fil4 str43" d="M26.7517 47.8962c-0.930293,-0.351859 0.599474,-1.8211 0.256158,-2.76902 -0.468464,-0.196947 -0.901619,-0.386804 -1.30487,-0.573935 -1.76557,0.556349 0.294102,2.29488 -0.89344,1.98642 -0.478507,-0.124239 -0.666228,-0.533673 -0.576526,-0.937473 0.111742,-0.502955 0.507317,-1.07734 0.377443,-1.58898 -1.14955,-0.610016 -2.31283,-1.39444 -3.08485,-2.31892 -0.108152,2.51155 0.305008,4.25203 0.937928,5.45252 1.05308,1.9975 2.71545,2.49073 3.55649,2.56244 1.53072,0.13051 4.25707,-0.491821 3.58198,-2.64606 -0.181587,-0.579479 -0.648597,-1.11506 -1.37926,-1.43743 -1.49273,0.498138 -0.315914,2.70736 -1.47106,2.27043z"/>
   </g>
  </g>
 </g>
</svg>
